Coordinates
version=1
nRows=13
nColumns=36
inDegrees=yes

Units are S.I. units (second, meters, Newtons, ...)
If the header above contains a line with 'inDegrees', this indicates whether rotational values are in degrees (yes) or radians (no).

endheader
time	pelvis_tilt	pelvis_list	pelvis_rotation	pelvis_tx	pelvis_ty	pelvis_tz	hip_flexion_r	hip_adduction_r	hip_rotation_r	knee_angle_r	knee_angle_r_beta	ankle_angle_r	subtalar_angle_r	mtp_angle_r	hip_flexion_l	hip_adduction_l	hip_rotation_l	knee_angle_l	knee_angle_l_beta	ankle_angle_l	subtalar_angle_l	mtp_angle_l	lumbar_extension	lumbar_bending	lumbar_rotation	arm_flex_r	arm_add_r	arm_rot_r	elbow_flex_r	pro_sup_r	arm_flex_l	arm_add_l	arm_rot_l	elbow_flex_l	pro_sup_l
      1.67000000	    -29.78690661	     -3.48659927	     -1.96453017	     -0.29859895	      0.64741302	     -0.62429786	     88.77121918	     -4.63113430	      0.39645272	     89.05349533	      1.55427670	     25.33948669	     -4.48933141	     -7.40947875	     90.79447222	     -4.69900317	     10.08442227	     89.77572075	      1.56688192	     27.77248921	     -9.75882346	     -7.40947875	    -34.42969148	      2.50872865	     -2.98697712	     12.96359210	    -47.60128521	     20.70760809	     64.66900878	    107.63914848	    -16.06523637	    -36.25937184	     -1.96239401	     64.93100372	    103.94955011
      1.68000000	    -30.74922229	     -3.54712795	     -1.84708644	     -0.29676232	      0.64744189	     -0.62575120	     89.39937137	     -5.00983585	      0.23351857	     88.78228764	      1.54954324	     25.33902312	     -4.31451732	     -7.41031193	     91.47904440	     -4.48621029	     10.01162623	     89.47719170	      1.56167160	     27.83566926	     -9.78491521	     -7.41031193	    -34.68945114	      2.59390532	     -3.50863678	     10.40350137	    -47.90064240	     20.52604160	     64.70533207	    107.54230126	    -19.20397501	    -35.81815809	     -2.40074783	     64.42654905	    103.89574791
      1.69000000	    -31.69607061	     -3.59591085	     -1.72526759	     -0.29491339	      0.64740769	     -0.62703170	     90.05606153	     -5.38103062	      0.08023546	     88.57148775	      1.54586408	     25.30776180	     -4.07963035	     -7.41135796	     92.16593808	     -4.27864103	      9.94979364	     89.21693890	      1.55712933	     27.83787024	     -9.79738184	     -7.41135796	    -34.93763833	      2.60688169	     -4.09858032	      7.48325612	    -48.01974157	     19.83386919	     64.94151884	    107.36769501	    -22.69641172	    -35.05460653	     -3.26234700	     64.41033793	    103.89744863
      1.70000000	    -32.53379694	     -3.55371768	     -1.73926101	     -0.29289237	      0.64749888	     -0.62762862	     90.63597607	     -5.56105012	      0.01012316	     88.37742170	      1.54247699	     25.23244044	     -3.83385624	     -7.41301096	     92.71295728	     -4.28194077	      9.81471355	     88.98904744	      1.55315188	     27.78509029	     -9.69935199	     -7.41301096	    -35.27265843	      2.31536059	     -4.49723057	      3.96905942	    -47.76510072	     18.23534852	     65.24500626	    107.01727233	    -26.32645427	    -33.95231012	     -5.02493237	     64.89853583	    103.93060561
      1.71000000	    -33.47180117	     -3.55254451	     -1.84967741	     -0.29082080	      0.64718487	     -0.62776055	     91.36172507	     -5.54822977	     -0.05995557	     88.24500984	      1.54016597	     25.21393330	     -3.79053252	     -7.41382712	     93.41302357	     -4.44186209	      9.77325418	     88.84909313	      1.55070921	     27.88449469	     -9.61533521	     -7.41382712	    -35.25867300	      2.06988821	     -4.81135742	      0.78763274	    -47.59070641	     17.67656136	     65.10220530	    106.82596286	    -29.57347505	    -33.01318181	     -5.69305207	     64.68231328	    103.87921940
      1.72000000	    -34.14940458	     -3.40038154	     -1.88566779	     -0.28866462	      0.64735772	     -0.62802206	     91.86319467	     -5.57211811	      0.10486318	     88.15523189	      1.53859905	     24.93953707	     -3.76342275	     -7.42643800	     93.79213452	     -4.50981360	      9.53721538	     88.67102552	      1.54760135	     27.98266644	     -9.18740958	     -7.42643800	    -35.76748136	      1.81558484	     -3.22552531	     -7.50370581	    -46.37638044	      9.40805653	     67.56208114	    104.92312588	    -30.67297215	    -32.68853203	     -5.20615731	     64.78801747	    103.82458923
      1.73000000	    -34.84963406	     -3.35119026	     -1.69285580	     -0.28646888	      0.64741536	     -0.62905087	     92.37996502	     -5.91809278	      0.15236226	     88.15989252	      1.53868039	     24.88118883	     -3.70532674	     -7.42703267	     94.24981049	     -4.24870889	      9.41134813	     88.52233262	      1.54500617	     27.99400674	     -9.15818036	     -7.42703267	    -35.84025657	      1.75250149	     -3.75222746	    -10.32874153	    -45.84650918	      9.21090821	     67.21476543	    104.85312186	    -33.46604707	    -31.60379714	     -5.61967163	     64.47920183	    103.70651524
      1.74000000	    -35.21545639	     -3.12062622	     -1.40619914	     -0.28412964	      0.64802731	     -0.63050571	     92.60364771	     -6.44712565	      0.42483237	     88.19257508	      1.53925081	     24.88518900	     -3.19824562	     -7.43015232	     94.28012295	     -3.84993761	      9.05607043	     88.30459477	      1.54120592	     27.78392016	     -9.36829500	     -7.43015232	    -36.44823729	      1.52421797	     -4.01264752	    -14.34140821	    -44.36574204	      5.89094221	     67.82620484	    104.58772404	    -36.04880366	    -29.96000207	     -7.68345669	     65.22021983	    103.04688948
      1.75000000	    -35.65680815	     -2.88536022	     -1.15570157	     -0.28174640	      0.64825315	     -0.63163929	     92.96549202	     -6.93389127	      0.61341102	     88.31592693	      1.54140371	     24.79661727	     -2.90034593	     -7.43264965	     94.41961517	     -3.46009036	      8.83126274	     88.18703444	      1.53915411	     27.66916917	     -9.37050723	     -7.43264965	    -36.69494372	      1.28899666	     -4.13554600	    -17.89865143	    -42.79767177	      3.51083458	     68.13536036	    104.55721411	    -38.06169999	    -28.74553484	     -8.66933242	     65.27143780	    102.18998772
      1.76000000	    -36.01324659	     -2.91570536	     -1.03331755	     -0.27921762	      0.64841385	     -0.63203821	     93.16807520	     -7.07236265	      0.58855811	     88.47923368	      1.54425395	     24.84660575	     -3.00727249	     -7.43308490	     94.61209323	     -3.49006156	      8.64919335	     88.16509119	      1.53877113	     27.70339416	     -9.25955419	     -7.43308490	    -36.79525238	      1.26767623	     -4.33749148	    -20.09885453	    -41.82569667	      3.31253202	     67.71458799	    104.55342895	    -39.94759310	    -27.73863744	     -8.71358283	     64.82000146	    101.96780576
      1.77000000	    -36.10410127	     -2.77347461	     -1.09058730	     -0.27646313	      0.64912038	     -0.63159564	     93.10787153	     -6.96572699	      0.67336131	     88.56069837	      1.54567577	     24.61709597	     -3.24864713	     -7.43589548	     94.40856190	     -3.83706737	      8.33189993	     88.12587777	      1.53808672	     28.18682266	     -8.51283044	     -7.43589548	    -37.32654665	      0.93025927	     -3.84169329	    -23.55197234	    -39.34526008	     -0.63595919	     68.43600667	    104.68190770	    -41.08508826	    -26.61259850	     -9.89137081	     65.37386947	    100.81021721
      1.78000000	    -36.28209505	     -2.74896937	     -1.04734211	     -0.27361592	      0.64951075	     -0.63177194	     93.11728010	     -7.03244051	      0.65865077	     88.68841180	      1.54790479	     24.58849593	     -3.29801517	     -7.44360003	     94.34080072	     -4.03915012	      8.09330151	     88.13396858	      1.53822793	     28.55561431	     -7.90371585	     -7.44360003	    -37.52941438	      1.04969195	     -2.60010206	    -27.34794737	    -36.63836620	     -5.12393715	     69.13735083	    105.33187245	    -40.60945397	    -26.66059114	     -8.18335896	     64.71538765	     98.19170873
      1.79000000	    -36.43205946	     -2.73946700	     -0.81187928	     -0.27085153	      0.64959810	     -0.63250309	     93.15827276	     -7.39476324	      0.59106834	     88.95942340	      1.55263484	     24.58310508	     -3.34477236	     -7.44418037	     94.28964356	     -3.95784738	      7.88542055	     88.16855124	      1.53883152	     28.66906658	     -7.73723304	     -7.44418037	    -37.56052920	      1.09316317	     -2.98466486	    -28.18296167	    -34.96064415	     -5.90711906	     68.53438778	    105.25563134	    -41.18742467	    -25.35923370	     -8.85987303	     64.28574395	     97.89091691
